<?xml version="1.0" encoding="UTF-8"?>
<svg version="1.1" xmlns="http://www.w3.org/2000/svg" width="512" height="512">
<defs>
<clipPath id="round">
<rect width="512" height="512" rx="90" ry="90"/>
</clipPath>
</defs>
<g clip-path="url(#round)">
<path d="M0 0 C168.96 0 337.92 0 512 0 C512 168.96 512 337.92 512 512 C343.04 512 174.08 512 0 512 C0 343.04 0 174.08 0 0 Z " fill="#000000" transform="translate(0,0)"/>
<path d="M0 0 C15.84 0 31.68 0 48 0 C49.1924666 4.76986638 50.29327446 9.25874992 51.09399414 14.06225586 C51.38108749 15.77092583 51.38108749 15.77092583 51.67398071 17.51411438 C51.87566864 18.73535507 52.07735657 19.95659576 52.28515625 21.21484375 C52.50182953 22.51234055 52.71850281 23.80983734 52.94174194 25.14665222 C53.53024163 28.67339996 54.11425941 32.20087598 54.697155 35.72855377 C55.0653416 37.95468084 55.43482911 40.18058829 55.80471802 42.40643311 C59.29669818 63.42450411 62.68030983 84.45769779 65.96563721 105.50915527 C69.68027426 129.29117133 73.63403074 153.03162323 77.62833977 176.76801014 C78.13265776 179.7660219 78.63584417 182.76422316 79.13897705 185.76243401 C79.48247169 187.80568887 79.82794905 189.84860104 80.17358398 191.89149475 C81.21457703 198.08962346 82.22198247 204.29193982 83.15649414 210.50708008 C83.40104088 212.12976555 83.40104088 212.12976555 83.65052795 213.78523254 C84.01871884 217.17219323 84 220.59308538 84 224 C72.45 224 60.9 224 49 224 C47.02 209.48 45.04 194.96 43 180 C29.8 180 16.6 180 3 180 C2.566875 183.91875 2.13375 187.8375 1.6875 191.875 C0.46844524 202.66302304 -1.09792875 213.31217109 -3 224 C-13.89 224 -24.78 224 -36 224 C-35.34818462 216.83003084 -34.57092325 210.16612582 -33.125 203.1875 C-31.65466803 195.81460793 -30.45358923 188.45696165 -29.5 181 C-28.46571003 172.93837126 -27.09965384 165.0043697 -25.50765991 157.03556824 C-24.35068453 151.13103523 -23.45071954 145.23706159 -22.6953125 139.26953125 C-20.97862159 126.25413966 -18.77941659 113.32304736 -16.58538818 100.38140869 C-15.36009348 93.15297669 -14.14760286 85.92239504 -12.9375 78.69140625 C-12.81471554 77.95808327 -12.69193108 77.22476028 -12.56542587 76.46921539 C-9.4911018 58.08987992 -6.59538121 39.68323143 -3.72998047 21.27026367 C-3.55192871 20.12960953 -3.37387695 18.98895538 -3.19042969 17.81373596 C-2.86006178 15.69554982 -2.53133728 13.57710642 -2.20458984 11.45835876 C-2.05957031 10.52802322 -1.91455078 9.59768768 -1.76513672 8.63916016 C-1.64065155 7.83451324 -1.51616638 7.02986633 -1.38790894 6.20083618 C-1.02025197 4.11490138 -0.51371173 2.05484692 0 0 Z " fill="#FCFCFC" transform="translate(327,146)"/>
<path d="M0 0 C76.50435127 0 76.50435127 0 90.3125 12.5625 C101.53713638 24.74790902 104.11908142 39.43428394 104.203125 55.3203125 C104.20882507 56.18204071 104.21452515 57.04376892 104.22039795 57.93161011 C104.22978156 59.74508462 104.23635524 61.55857567 104.24023438 63.37207031 C104.24990181 66.09732032 104.28097349 68.82180241 104.3125 71.546875 C104.41869522 88.76108144 103.05349481 106.82833387 90.5625 120.0625 C74.70020106 134.08773982 55.7527299 133 35 133 C35 163.03 35 193.06 35 224 C23.45 224 11.9 224 0 224 C0 150.08 0 76.16 0 0 Z " fill="#FEFEFE" transform="translate(49,146)"/>
<path d="M0 0 C9.5398222 8.99260487 14.92654429 20.9937172 15.7199707 34.01904297 C16.26619936 60.9735774 16.26619936 60.9735774 11.54296875 74.11328125 C11.11886719 75.29535156 10.69476563 76.47742188 10.2578125 77.6953125 C2.11475558 98.26843959 -12.95648885 114.93651167 -27.984375 130.77734375 C-43.50382367 147.40007076 -52.00284717 160.84633594 -53.45703125 184.11328125 C-31.67703125 184.11328125 -9.89703125 184.11328125 12.54296875 184.11328125 C12.54296875 194.67328125 12.54296875 205.23328125 12.54296875 216.11328125 C-20.78703125 216.11328125 -54.11703125 216.11328125 -88.45703125 216.11328125 C-88.45703125 169.43422061 -84.75265777 145.35232939 -54.46875 113.32421875 C-36.14962932 93.92469376 -20.27594446 72.91478058 -20.01953125 45.17578125 C-20.00937988 44.40741943 -19.99922852 43.63905762 -19.98876953 42.84741211 C-20.07344722 37.32368384 -20.99588707 32.10570418 -23.45703125 27.11328125 C-28.97191942 22.51754111 -33.69294447 21.7529945 -40.66015625 21.8359375 C-44.980162 22.26431796 -47.04276035 23.41031679 -50.45703125 26.11328125 C-54.00436982 31.78902296 -54.58411644 36.68596504 -54.7734375 43.28515625 C-54.81154541 44.53393555 -54.84965332 45.78271484 -54.88891602 47.06933594 C-54.93201904 48.65133789 -54.97512207 50.23333984 -55.01953125 51.86328125 C-55.16390625 56.89578125 -55.30828125 61.92828125 -55.45703125 67.11328125 C-66.34703125 67.11328125 -77.23703125 67.11328125 -88.45703125 67.11328125 C-88.51890625 59.31703125 -88.51890625 59.31703125 -88.58203125 51.36328125 C-88.60023926 49.74969727 -88.61844727 48.13611328 -88.63720703 46.47363281 C-88.68086381 35.02428955 -88.30623969 24.19304661 -82.83203125 13.86328125 C-82.29763428 12.84053101 -82.29763428 12.84053101 -81.75244141 11.79711914 C-75.50482883 0.29727166 -66.03659497 -5.78542114 -53.7421875 -9.765625 C-35.5509734 -13.77385862 -14.97955805 -11.50258591 0 0 Z " fill="#FDFDFD" transform="translate(260.45703125,153.88671875)"/>
<path d="M0 0 C11.55 0 23.1 0 35 0 C35 73.92 35 147.84 35 224 C23.45 224 11.9 224 0 224 C0 150.08 0 76.16 0 0 Z " fill="#FDFDFD" transform="translate(429,146)"/>
<path d="M0 0 C21 0 21 0 28 3 C33.74291352 8.8981274 34.31571662 14.50360759 34.3359375 22.359375 C34.3425943 23.26318909 34.3492511 24.16700317 34.35610962 25.09820557 C34.36621532 27.00783256 34.37092728 28.91749473 34.37060547 30.82714844 C34.37496469 33.72651511 34.4112673 36.62434126 34.44921875 39.5234375 C34.4550904 41.38541151 34.45905746 43.24739269 34.4609375 45.109375 C34.47530853 45.96593689 34.48967957 46.82249878 34.50448608 47.70501709 C34.45917597 53.77301243 33.22843753 58.79940842 30 64 C20.38114802 71.85212407 14.44212217 69 0 69 C0 46.23 0 23.46 0 0 Z " fill="#020202" transform="translate(84,178)"/>
<path d="M0 0 C1.93586868 3.34733003 2.52609667 6.39333705 3.08154297 10.2043457 C3.26868866 11.46539627 3.45583435 12.72644684 3.64865112 14.02571106 C3.84670847 15.40903747 4.0445475 16.79239515 4.2421875 18.17578125 C4.45342054 19.62045395 4.66519266 21.06504792 4.87747192 22.50956726 C5.3237525 25.55631706 5.76546225 28.60368197 6.20361328 31.65161133 C6.75077793 35.45742561 7.30581386 39.26203012 7.86400986 43.06624031 C11.17997274 65.67851856 14.16530593 88.32244743 17 111 C6.44 111 -4.12 111 -15 111 C-13.87292818 101.98342541 -13.87292818 101.98342541 -13.421875 98.671875 C-13.31576904 97.89255615 -13.20966309 97.1132373 -13.1003418 96.31030273 C-12.984729 95.46540283 -12.86911621 94.62050293 -12.75 93.75 C-12.55821167 92.34439819 -12.55821167 92.34439819 -12.36254883 90.91040039 C-11.55184713 84.98452348 -10.73060099 79.06016508 -9.90234375 73.13671875 C-6.4976845 48.77148134 -3.23011508 24.38895801 0 0 Z " fill="#050505" transform="translate(349,185)"/>
</g>
</svg>
